# xmcd CD database file
#
# Track frame offsets:
#	150
#	34164
#	68825
#	96246
#	128459
#	157753
#	192143
#	210244
#	241903
#	278011
#
# Disc length: 4010 seconds
#
# Revision: 0
# Processed by: cddbd v1.5.2PL0 Copyright (c) Steve Scherf et al.
# Submitted via: CDex 1.70beta2
#
DISCID=770fa80a
DTITLE=Mike Stern - 313 - Odd and Evens
DYEAR=1991
DGENRE=Jazz
TTITLE0=Keys
TTITLE1=D.C.
TTITLE2=Common Ground
TTITLE3=Odds or Evens
TTITLE4=Seven Thirty
TTITLE5=If you say so
TTITLE6=Sandbox
TTITLE7=Walkie Talkie
TTITLE8=Love is stronger then Bride
TTITLE9=All Apologies
EXTD=YEAR: 1991
EXTT0=
EXTT1=
EXTT2=
EXTT3=
EXTT4=
EXTT5=
EXTT6=
EXTT7=
EXTT8=
EXTT9=
PLAYORDER=
